<svg xmlns="http://www.w3.org/2000/svg" xmlns:xlink="http://www.w3.org/1999/xlink"><symbol viewBox="0 0 512 512" id="svg--check" xmlns="http://www.w3.org/2000/svg"><path fill="#f3b9d6" d="M47.222 263.447L0 310.669l149.961 149.962 22.261-47.223-22.261-47.222z"/><path fill="#ed677a" d="M464.778 51.369L149.961 366.186v94.445L512 98.592z"/></symbol><symbol viewBox="0 0 384.97 384.97" id="svg--menu" xmlns="http://www.w3.org/2000/svg"><path d="M12.03 120.303h360.909c6.641 0 12.03-5.39 12.03-12.03 0-6.641-5.39-12.03-12.03-12.03H12.03c-6.641 0-12.03 5.39-12.03 12.03s5.39 12.03 12.03 12.03z" fill="#db3961"/><path d="M372.939 180.455H12.03c-6.641 0-12.03 5.39-12.03 12.03s5.39 12.03 12.03 12.03h360.909c6.641 0 12.03-5.39 12.03-12.03s-5.389-12.03-12.03-12.03z" fill="#ed677a"/><path d="M372.939 264.667H132.333c-6.641 0-12.03 5.39-12.03 12.03 0 6.641 5.39 12.03 12.03 12.03h240.606c6.641 0 12.03-5.39 12.03-12.03.001-6.641-5.389-12.03-12.03-12.03z" fill="#e7b59f"/></symbol></svg>